<?xml version="1.0" standalone="no"?><!-- Generator: Gravit.io --><svg xmlns="http://www.w3.org/2000/svg" xmlns:xlink="http://www.w3.org/1999/xlink" style="isolation:isolate" viewBox="-10 -15 150 125" width="150" height="125"><g id="Icon" filter="url(#mP0YWNeE0tat4Upz2M22OKWyluooJ0ml)"><path d="M 24.195 0 L 105.805 0 C 110.88 0 115 4.12 115 9.195 L 115 90.805 C 115 95.88 110.88 100 105.805 100 L 24.195 100 C 19.12 100 15 95.88 15 90.805 L 15 9.195 C 15 4.12 19.12 0 24.195 0 Z" style="stroke:none;fill:#FFFFFF;stroke-miterlimit:10;"/><g id="Group"><path d="M 21.929 0 L 108.071 0 C 111.895 0 115 3.105 115 6.929 L 115 18.071 C 115 21.895 111.895 25 108.071 25 L 21.929 25 C 18.105 25 15 21.895 15 18.071 L 15 6.929 C 15 3.105 18.105 0 21.929 0 Z" style="stroke:none;fill:#FF4500;stroke-miterlimit:10;"/><rect x="15" y="15" width="100" height="10" transform="matrix(1,0,0,1,0,0)" fill="rgb(255,69,0)"/></g><g id="Group"><path d="M 31.272 72 L 113.728 72 C 119.949 72 125 76.929 125 83 L 125 83 C 125 89.071 119.949 94 113.728 94 L 31.272 94 C 25.051 94 20 89.071 20 83 L 20 83 C 20 76.929 25.051 72 31.272 72 Z" style="stroke:none;fill:#B9B9B9;stroke-miterlimit:10;"/><path d="M 16.272 45 L 98.728 45 C 104.949 45 110 49.929 110 56 L 110 56 C 110 62.071 104.949 67 98.728 67 L 16.272 67 C 10.051 67 5 62.071 5 56 L 5 56 C 5 49.929 10.051 45 16.272 45 Z" style="stroke:none;fill:#B9B9B9;stroke-miterlimit:10;"/><path d="M 31.272 18 L 113.728 18 C 119.949 18 125 22.929 125 29 L 125 29 C 125 35.071 119.949 40 113.728 40 L 31.272 40 C 25.051 40 20 35.071 20 29 L 20 29 C 20 22.929 25.051 18 31.272 18 Z" style="stroke:none;fill:#B9B9B9;stroke-miterlimit:10;"/></g></g><defs><filter id="mP0YWNeE0tat4Upz2M22OKWyluooJ0ml" x="-200%" y="-200%" width="400%" height="400%"><feOffset xmlns="http://www.w3.org/2000/svg" in="SourceAlpha" result="offOut" dx="0" dy="0"/><feGaussianBlur xmlns="http://www.w3.org/2000/svg" in="offOut" result="blurOut" stdDeviation="2.5"/><feComponentTransfer xmlns="http://www.w3.org/2000/svg" in="blurOut" result="opacOut"><feFuncA xmlns="http://www.w3.org/2000/svg" type="table" tableValues="0 0.5"/></feComponentTransfer><feBlend xmlns="http://www.w3.org/2000/svg" in="SourceGraphic" in2="opacOut" mode="normal"/></filter></defs></svg>