<?xml version="1.0" standalone="no"?><!-- Generator: Gravit.io --><svg xmlns="http://www.w3.org/2000/svg" xmlns:xlink="http://www.w3.org/1999/xlink" style="isolation:isolate" viewBox="-10 -15 688.2 178" width="688.2" height="178"><defs><filter id="EOudDPphva3bcNyzLHwiKS4OAvmJIH93" x="-200%" y="-200%" width="400%" height="400%"><feOffset xmlns="http://www.w3.org/2000/svg" in="SourceAlpha" result="offOut" dx="5" dy="5"/><feGaussianBlur xmlns="http://www.w3.org/2000/svg" in="offOut" result="blurOut" stdDeviation="4"/><feComponentTransfer xmlns="http://www.w3.org/2000/svg" in="blurOut" result="opacOut"><feFuncA xmlns="http://www.w3.org/2000/svg" type="table" tableValues="0 0.5"/></feComponentTransfer><feBlend xmlns="http://www.w3.org/2000/svg" in="SourceGraphic" in2="opacOut" mode="normal"/></filter></defs><g filter="url(#EOudDPphva3bcNyzLHwiKS4OAvmJIH93)"><path d=" M 498.02 136.48 L 498.02 136.48 L 498.02 136.48 Q 495.4 136.48 493.35 135.36 L 493.35 135.36 L 493.35 135.36 Q 491.3 134.24 490.14 132.29 L 490.14 132.29 L 490.14 132.29 Q 488.98 130.34 488.98 127.84 L 488.98 127.84 L 488.98 127.84 Q 488.98 125.34 490.14 123.37 L 490.14 123.37 L 490.14 123.37 Q 491.3 121.4 493.35 120.25 L 493.35 120.25 L 493.35 120.25 Q 495.4 119.1 498.02 119.1 L 498.02 119.1 L 498.02 119.1 Q 500.66 119.1 502.68 120.25 L 502.68 120.25 L 502.68 120.25 Q 504.7 121.4 505.84 123.37 L 505.84 123.37 L 505.84 123.37 Q 506.98 125.34 506.98 127.84 L 506.98 127.84 L 506.98 127.84 Q 506.98 130.34 505.84 132.29 L 505.84 132.29 L 505.84 132.29 Q 504.7 134.24 502.68 135.36 L 502.68 135.36 L 502.68 135.36 Q 500.66 136.48 498.02 136.48 Z  M 498.02 132.26 L 498.02 132.26 L 498.02 132.26 Q 499.28 132.26 500.21 131.69 L 500.21 131.69 L 500.21 131.69 Q 501.14 131.12 501.65 130.11 L 501.65 130.11 L 501.65 130.11 Q 502.16 129.1 502.16 127.82 L 502.16 127.82 L 502.16 127.82 Q 502.16 126.54 501.65 125.52 L 501.65 125.52 L 501.65 125.52 Q 501.14 124.5 500.21 123.91 L 500.21 123.91 L 500.21 123.91 Q 499.28 123.32 498.02 123.32 L 498.02 123.32 L 498.02 123.32 Q 496.76 123.32 495.83 123.91 L 495.83 123.91 L 495.83 123.91 Q 494.9 124.5 494.38 125.52 L 494.38 125.52 L 494.38 125.52 Q 493.86 126.54 493.86 127.82 L 493.86 127.82 L 493.86 127.82 Q 493.86 129.1 494.38 130.11 L 494.38 130.11 L 494.38 130.11 Q 494.9 131.12 495.83 131.69 L 495.83 131.69 L 495.83 131.69 Q 496.76 132.26 498.02 132.26 Z  M 515.12 127.46 L 515.12 136 L 510.04 136 L 510.04 119.58 L 515.12 119.58 L 515.12 122.24 L 515.02 122.24 L 515.02 122.24 Q 515.16 121.76 515.79 121.02 L 515.79 121.02 L 515.79 121.02 Q 516.42 120.28 517.54 119.69 L 517.54 119.69 L 517.54 119.69 Q 518.66 119.1 520.24 119.1 L 520.24 119.1 L 520.24 119.1 Q 521.38 119.1 522.31 119.43 L 522.31 119.43 L 522.31 119.43 Q 523.24 119.76 523.64 120.08 L 523.64 120.08 L 521.64 124.24 L 521.64 124.24 Q 521.38 123.92 520.67 123.58 L 520.67 123.58 L 520.67 123.58 Q 519.96 123.24 518.9 123.24 L 518.9 123.24 L 518.9 123.24 Q 517.64 123.24 516.8 123.93 L 516.8 123.93 L 516.8 123.93 Q 515.96 124.62 515.54 125.61 L 515.54 125.61 L 515.54 125.61 Q 515.12 126.6 515.12 127.46 L 515.12 127.46 L 515.12 127.46 Z  M 533.84 144.78 L 533.84 144.78 L 533.84 144.78 Q 532.04 144.78 530.39 144.44 L 530.39 144.44 L 530.39 144.44 Q 528.74 144.1 527.4 143.38 L 527.4 143.38 L 527.4 143.38 Q 526.06 142.66 525.16 141.5 L 525.16 141.5 L 528.24 138.38 L 528.24 138.38 Q 528.66 138.92 529.33 139.47 L 529.33 139.47 L 529.33 139.47 Q 530 140.02 531.04 140.39 L 531.04 140.39 L 531.04 140.39 Q 532.08 140.76 533.64 140.76 L 533.64 140.76 L 533.64 140.76 Q 535.12 140.76 536.19 140.19 L 536.19 140.19 L 536.19 140.19 Q 537.26 139.62 537.85 138.58 L 537.85 138.58 L 537.85 138.58 Q 538.44 137.54 538.44 136.16 L 538.44 136.16 L 538.44 135.7 L 543.42 135.7 L 543.42 136.46 L 543.42 136.46 Q 543.42 139.18 542.14 141.04 L 542.14 141.04 L 542.14 141.04 Q 540.86 142.9 538.7 143.84 L 538.7 143.84 L 538.7 143.84 Q 536.54 144.78 533.84 144.78 Z  M 543.42 136 L 538.44 136 L 538.44 133.14 L 538.44 133.14 Q 538.26 133.58 537.52 134.38 L 537.52 134.38 L 537.52 134.38 Q 536.78 135.18 535.53 135.83 L 535.53 135.83 L 535.53 135.83 Q 534.28 136.48 532.6 136.48 L 532.6 136.48 L 532.6 136.48 Q 530.24 136.48 528.42 135.35 L 528.42 135.35 L 528.42 135.35 Q 526.6 134.22 525.57 132.25 L 525.57 132.25 L 525.57 132.25 Q 524.54 130.28 524.54 127.8 L 524.54 127.8 L 524.54 127.8 Q 524.54 125.32 525.57 123.35 L 525.57 123.35 L 525.57 123.35 Q 526.6 121.38 528.42 120.24 L 528.42 120.24 L 528.42 120.24 Q 530.24 119.1 532.6 119.1 L 532.6 119.1 L 532.6 119.1 Q 534.24 119.1 535.45 119.65 L 535.45 119.65 L 535.45 119.65 Q 536.66 120.2 537.41 120.93 L 537.41 120.93 L 537.41 120.93 Q 538.16 121.66 538.38 122.24 L 538.38 122.24 L 538.38 119.58 L 543.42 119.58 L 543.42 136 L 543.42 136 Z  M 529.52 127.8 L 529.52 127.8 L 529.52 127.8 Q 529.52 129.18 530.14 130.23 L 530.14 130.23 L 530.14 130.23 Q 530.76 131.28 531.78 131.86 L 531.78 131.86 L 531.78 131.86 Q 532.8 132.44 534 132.44 L 534 132.44 L 534 132.44 Q 535.26 132.44 536.24 131.85 L 536.24 131.85 L 536.24 131.85 Q 537.22 131.26 537.79 130.21 L 537.79 130.21 L 537.79 130.21 Q 538.36 129.16 538.36 127.8 L 538.36 127.8 L 538.36 127.8 Q 538.36 126.44 537.79 125.39 L 537.79 125.39 L 537.79 125.39 Q 537.22 124.34 536.24 123.74 L 536.24 123.74 L 536.24 123.74 Q 535.26 123.14 534 123.14 L 534 123.14 L 534 123.14 Q 532.8 123.14 531.78 123.73 L 531.78 123.73 L 531.78 123.73 Q 530.76 124.32 530.14 125.37 L 530.14 125.37 L 530.14 125.37 Q 529.52 126.42 529.52 127.8 Z  M 565.58 136 L 560.6 136 L 560.6 133.14 L 560.6 133.14 Q 560.42 133.58 559.68 134.38 L 559.68 134.38 L 559.68 134.38 Q 558.94 135.18 557.69 135.83 L 557.69 135.83 L 557.69 135.83 Q 556.44 136.48 554.76 136.48 L 554.76 136.48 L 554.76 136.48 Q 552.4 136.48 550.58 135.35 L 550.58 135.35 L 550.58 135.35 Q 548.76 134.22 547.73 132.25 L 547.73 132.25 L 547.73 132.25 Q 546.7 130.28 546.7 127.8 L 546.7 127.8 L 546.7 127.8 Q 546.7 125.32 547.73 123.35 L 547.73 123.35 L 547.73 123.35 Q 548.76 121.38 550.58 120.24 L 550.58 120.24 L 550.58 120.24 Q 552.4 119.1 554.76 119.1 L 554.76 119.1 L 554.76 119.1 Q 556.4 119.1 557.61 119.65 L 557.61 119.65 L 557.61 119.65 Q 558.82 120.2 559.57 120.93 L 559.57 120.93 L 559.57 120.93 Q 560.32 121.66 560.54 122.24 L 560.54 122.24 L 560.54 119.58 L 565.58 119.58 L 565.58 136 L 565.58 136 Z  M 551.68 127.8 L 551.68 127.8 L 551.68 127.8 Q 551.68 129.18 552.3 130.23 L 552.3 130.23 L 552.3 130.23 Q 552.92 131.28 553.94 131.86 L 553.94 131.86 L 553.94 131.86 Q 554.96 132.44 556.16 132.44 L 556.16 132.44 L 556.16 132.44 Q 557.42 132.44 558.4 131.85 L 558.4 131.85 L 558.4 131.85 Q 559.38 131.26 559.95 130.21 L 559.95 130.21 L 559.95 130.21 Q 560.52 129.16 560.52 127.8 L 560.52 127.8 L 560.52 127.8 Q 560.52 126.44 559.95 125.39 L 559.95 125.39 L 559.95 125.39 Q 559.38 124.34 558.4 123.74 L 558.4 123.74 L 558.4 123.74 Q 557.42 123.14 556.16 123.14 L 556.16 123.14 L 556.16 123.14 Q 554.96 123.14 553.94 123.73 L 553.94 123.73 L 553.94 123.73 Q 552.92 124.32 552.3 125.37 L 552.3 125.37 L 552.3 125.37 Q 551.68 126.42 551.68 127.8 Z  M 580.24 119.1 L 580.24 119.1 L 580.24 119.1 Q 581.92 119.1 583.52 119.79 L 583.52 119.79 L 583.52 119.79 Q 585.12 120.48 586.15 121.98 L 586.15 121.98 L 586.15 121.98 Q 587.18 123.48 587.18 125.9 L 587.18 125.9 L 587.18 136 L 582.08 136 L 582.08 126.78 L 582.08 126.78 Q 582.08 124.76 581.13 123.78 L 581.13 123.78 L 581.13 123.78 Q 580.18 122.8 578.64 122.8 L 578.64 122.8 L 578.64 122.8 Q 577.64 122.8 576.73 123.35 L 576.73 123.35 L 576.73 123.35 Q 575.82 123.9 575.25 124.87 L 575.25 124.87 L 575.25 124.87 Q 574.68 125.84 574.68 127.08 L 574.68 127.08 L 574.68 136 L 569.6 136 L 569.6 119.58 L 574.68 119.58 L 574.68 122.2 L 574.68 122.2 Q 574.9 121.52 575.68 120.8 L 575.68 120.8 L 575.68 120.8 Q 576.46 120.08 577.66 119.59 L 577.66 119.59 L 577.66 119.59 Q 578.86 119.1 580.24 119.1 Z  M 596.46 136 L 591.4 136 L 591.4 119.58 L 596.46 119.58 L 596.46 136 L 596.46 136 Z  M 594 115.34 L 594 115.34 L 594 115.34 Q 592.74 115.34 591.87 114.46 L 591.87 114.46 L 591.87 114.46 Q 591 113.58 591 112.36 L 591 112.36 L 591 112.36 Q 591 111.14 591.88 110.24 L 591.88 110.24 L 591.88 110.24 Q 592.76 109.34 594 109.34 L 594 109.34 L 594 109.34 Q 594.82 109.34 595.5 109.75 L 595.5 109.75 L 595.5 109.75 Q 596.18 110.16 596.6 110.84 L 596.6 110.84 L 596.6 110.84 Q 597.02 111.52 597.02 112.36 L 597.02 112.36 L 597.02 112.36 Q 597.02 113.58 596.13 114.46 L 596.13 114.46 L 596.13 114.46 Q 595.24 115.34 594 115.34 Z  M 608 119.1 L 608 119.1 L 608 119.1 Q 609.48 119.1 610.74 119.37 L 610.74 119.37 L 610.74 119.37 Q 612 119.64 612.87 119.98 L 612.87 119.98 L 612.87 119.98 Q 613.74 120.32 614.02 120.56 L 614.02 120.56 L 612.28 123.62 L 612.28 123.62 Q 611.88 123.3 610.85 122.86 L 610.85 122.86 L 610.85 122.86 Q 609.82 122.42 608.56 122.42 L 608.56 122.42 L 608.56 122.42 Q 607.42 122.42 606.64 122.81 L 606.64 122.81 L 606.64 122.81 Q 605.86 123.2 605.86 123.98 L 605.86 123.98 L 605.86 123.98 Q 605.86 124.76 606.7 125.22 L 606.7 125.22 L 606.7 125.22 Q 607.54 125.68 609.04 126.02 L 609.04 126.02 L 609.04 126.02 Q 610.3 126.28 611.52 126.81 L 611.52 126.81 L 611.52 126.81 Q 612.74 127.34 613.54 128.33 L 613.54 128.33 L 613.54 128.33 Q 614.34 129.32 614.34 130.96 L 614.34 130.96 L 614.34 130.96 Q 614.34 132.58 613.65 133.65 L 613.65 133.65 L 613.65 133.65 Q 612.96 134.72 611.82 135.34 L 611.82 135.34 L 611.82 135.34 Q 610.68 135.96 609.32 136.22 L 609.32 136.22 L 609.32 136.22 Q 607.96 136.48 606.62 136.48 L 606.62 136.48 L 606.62 136.48 Q 604.88 136.48 603.56 136.15 L 603.56 136.15 L 603.56 136.15 Q 602.24 135.82 601.39 135.39 L 601.39 135.39 L 601.39 135.39 Q 600.54 134.96 600.18 134.66 L 600.18 134.66 L 601.92 131.26 L 601.92 131.26 Q 602.44 131.72 603.63 132.27 L 603.63 132.27 L 603.63 132.27 Q 604.82 132.82 606.2 132.82 L 606.2 132.82 L 606.2 132.82 Q 607.64 132.82 608.47 132.32 L 608.47 132.32 L 608.47 132.32 Q 609.3 131.82 609.3 130.98 L 609.3 130.98 L 609.3 130.98 Q 609.3 130.36 608.9 129.97 L 608.9 129.97 L 608.9 129.97 Q 608.5 129.58 607.8 129.32 L 607.8 129.32 L 607.8 129.32 Q 607.1 129.06 606.16 128.86 L 606.16 128.86 L 606.16 128.86 Q 605.3 128.68 604.4 128.33 L 604.4 128.33 L 604.4 128.33 Q 603.5 127.98 602.72 127.4 L 602.72 127.4 L 602.72 127.4 Q 601.94 126.82 601.46 125.95 L 601.46 125.95 L 601.46 125.95 Q 600.98 125.08 600.98 123.86 L 600.98 123.86 L 600.98 123.86 Q 600.98 122.3 601.98 121.25 L 601.98 121.25 L 601.98 121.25 Q 602.98 120.2 604.58 119.65 L 604.58 119.65 L 604.58 119.65 Q 606.18 119.1 608 119.1 Z  M 633.98 128.92 L 621.66 128.92 L 621.66 128.92 Q 621.72 130.04 622.26 130.92 L 622.26 130.92 L 622.26 130.92 Q 622.8 131.8 623.83 132.3 L 623.83 132.3 L 623.83 132.3 Q 624.86 132.8 626.3 132.8 L 626.3 132.8 L 626.3 132.8 Q 627.6 132.8 628.59 132.48 L 628.59 132.48 L 628.59 132.48 Q 629.58 132.16 630.27 131.69 L 630.27 131.69 L 630.27 131.69 Q 630.96 131.22 631.3 130.78 L 631.3 130.78 L 633.4 133.9 L 633.4 133.9 Q 632.84 134.6 631.91 135.19 L 631.91 135.19 L 631.91 135.19 Q 630.98 135.78 629.55 136.13 L 629.55 136.13 L 629.55 136.13 Q 628.12 136.48 625.98 136.48 L 625.98 136.48 L 625.98 136.48 Q 623.28 136.48 621.24 135.42 L 621.24 135.42 L 621.24 135.42 Q 619.2 134.36 618.06 132.36 L 618.06 132.36 L 618.06 132.36 Q 616.92 130.36 616.92 127.6 L 616.92 127.6 L 616.92 127.6 Q 616.92 125.2 617.94 123.27 L 617.94 123.27 L 617.94 123.27 Q 618.96 121.34 620.91 120.22 L 620.91 120.22 L 620.91 120.22 Q 622.86 119.1 625.6 119.1 L 625.6 119.1 L 625.6 119.1 Q 628.18 119.1 630.07 120.09 L 630.07 120.09 L 630.07 120.09 Q 631.96 121.08 633 122.98 L 633 122.98 L 633 122.98 Q 634.04 124.88 634.04 127.62 L 634.04 127.62 L 634.04 127.62 Q 634.04 127.78 634.03 128.27 L 634.03 128.27 L 634.03 128.27 Q 634.02 128.76 633.98 128.92 L 633.98 128.92 L 633.98 128.92 Z  M 621.8 125.78 L 629.28 125.78 L 629.28 125.78 Q 629.26 125.14 628.89 124.4 L 628.89 124.4 L 628.89 124.4 Q 628.52 123.66 627.74 123.14 L 627.74 123.14 L 627.74 123.14 Q 626.96 122.62 625.66 122.62 L 625.66 122.62 L 625.66 122.62 Q 624.36 122.62 623.53 123.12 L 623.53 123.12 L 623.53 123.12 Q 622.7 123.62 622.28 124.35 L 622.28 124.35 L 622.28 124.35 Q 621.86 125.08 621.8 125.78 L 621.8 125.78 L 621.8 125.78 Z  M 644.58 136.48 L 644.58 136.48 L 644.58 136.48 Q 642.24 136.48 640.47 135.35 L 640.47 135.35 L 640.47 135.35 Q 638.7 134.22 637.71 132.25 L 637.71 132.25 L 637.71 132.25 Q 636.72 130.28 636.72 127.8 L 636.72 127.8 L 636.72 127.8 Q 636.72 125.32 637.71 123.35 L 637.71 123.35 L 637.71 123.35 Q 638.7 121.38 640.47 120.24 L 640.47 120.24 L 640.47 120.24 Q 642.24 119.1 644.58 119.1 L 644.58 119.1 L 644.58 119.1 Q 646.24 119.1 647.53 119.64 L 647.53 119.64 L 647.53 119.64 Q 648.82 120.18 649.6 120.92 L 649.6 120.92 L 649.6 120.92 Q 650.38 121.66 650.52 122.24 L 650.52 122.24 L 650.52 108.48 L 655.62 108.48 L 655.62 136 L 650.58 136 L 650.58 133.14 L 650.58 133.14 Q 650.26 133.84 649.4 134.62 L 649.4 134.62 L 649.4 134.62 Q 648.54 135.4 647.3 135.94 L 647.3 135.94 L 647.3 135.94 Q 646.06 136.48 644.58 136.48 Z  M 646.02 132.44 L 646.02 132.44 L 646.02 132.44 Q 647.3 132.44 648.32 131.85 L 648.32 131.85 L 648.32 131.85 Q 649.34 131.26 649.93 130.21 L 649.93 130.21 L 649.93 130.21 Q 650.52 129.16 650.52 127.8 L 650.52 127.8 L 650.52 127.8 Q 650.52 126.44 649.93 125.39 L 649.93 125.39 L 649.93 125.39 Q 649.34 124.34 648.32 123.74 L 648.32 123.74 L 648.32 123.74 Q 647.3 123.14 646.02 123.14 L 646.02 123.14 L 646.02 123.14 Q 644.84 123.14 643.86 123.73 L 643.86 123.73 L 643.86 123.73 Q 642.88 124.32 642.29 125.37 L 642.29 125.37 L 642.29 125.37 Q 641.7 126.42 641.7 127.8 L 641.7 127.8 L 641.7 127.8 Q 641.7 129.18 642.29 130.23 L 642.29 130.23 L 642.29 130.23 Q 642.88 131.28 643.86 131.86 L 643.86 131.86 L 643.86 131.86 Q 644.84 132.44 646.02 132.44 Z  M 460.92 136 L 455.86 136 L 455.86 119.58 L 460.92 119.58 L 460.92 136 L 460.92 136 Z  M 458.46 115.34 L 458.46 115.34 L 458.46 115.34 Q 457.2 115.34 456.33 114.46 L 456.33 114.46 L 456.33 114.46 Q 455.46 113.58 455.46 112.36 L 455.46 112.36 L 455.46 112.36 Q 455.46 111.14 456.34 110.24 L 456.34 110.24 L 456.34 110.24 Q 457.22 109.34 458.46 109.34 L 458.46 109.34 L 458.46 109.34 Q 459.28 109.34 459.96 109.75 L 459.96 109.75 L 459.96 109.75 Q 460.64 110.16 461.06 110.84 L 461.06 110.84 L 461.06 110.84 Q 461.48 111.52 461.48 112.36 L 461.48 112.36 L 461.48 112.36 Q 461.48 113.58 460.59 114.46 L 460.59 114.46 L 460.59 114.46 Q 459.7 115.34 458.46 115.34 Z  M 464.16 123.8 L 464.16 119.58 L 467.12 119.58 L 467.12 112.84 L 472.16 112.84 L 472.16 119.58 L 476.04 119.58 L 476.04 123.8 L 472.16 123.8 L 472.16 129.74 L 472.16 129.74 Q 472.16 130.92 472.54 131.57 L 472.54 131.57 L 472.54 131.57 Q 472.92 132.22 473.74 132.22 L 473.74 132.22 L 473.74 132.22 Q 474.36 132.22 474.76 131.97 L 474.76 131.97 L 474.76 131.97 Q 475.16 131.72 475.24 131.62 L 475.24 131.62 L 477.04 135.26 L 477.04 135.26 Q 476.92 135.38 476.27 135.68 L 476.27 135.68 L 476.27 135.68 Q 475.62 135.98 474.61 136.23 L 474.61 136.23 L 474.61 136.23 Q 473.6 136.48 472.34 136.48 L 472.34 136.48 L 472.34 136.48 Q 470.08 136.48 468.6 135.17 L 468.6 135.17 L 468.6 135.17 Q 467.12 133.86 467.12 131.1 L 467.12 131.1 L 467.12 123.8 L 464.16 123.8 L 464.16 123.8 Z  M 380.4 109.6 L 371.04 122.48 L 381.36 136 L 375.38 136 L 366.6 124.2 L 366.6 136 L 361.6 136 L 361.6 109.6 L 366.6 109.6 L 366.6 120.9 L 374.74 109.6 L 380.4 109.6 L 380.4 109.6 Z  M 399.98 128.92 L 387.66 128.92 L 387.66 128.92 Q 387.72 130.04 388.26 130.92 L 388.26 130.92 L 388.26 130.92 Q 388.8 131.8 389.83 132.3 L 389.83 132.3 L 389.83 132.3 Q 390.86 132.8 392.3 132.8 L 392.3 132.8 L 392.3 132.8 Q 393.6 132.8 394.59 132.48 L 394.59 132.48 L 394.59 132.48 Q 395.58 132.16 396.27 131.69 L 396.27 131.69 L 396.27 131.69 Q 396.96 131.22 397.3 130.78 L 397.3 130.78 L 399.4 133.9 L 399.4 133.9 Q 398.84 134.6 397.91 135.19 L 397.91 135.19 L 397.91 135.19 Q 396.98 135.78 395.55 136.13 L 395.55 136.13 L 395.55 136.13 Q 394.12 136.48 391.98 136.48 L 391.98 136.48 L 391.98 136.48 Q 389.28 136.48 387.24 135.42 L 387.24 135.42 L 387.24 135.42 Q 385.2 134.36 384.06 132.36 L 384.06 132.36 L 384.06 132.36 Q 382.92 130.36 382.92 127.6 L 382.92 127.6 L 382.92 127.6 Q 382.92 125.2 383.94 123.27 L 383.94 123.27 L 383.94 123.27 Q 384.96 121.34 386.91 120.22 L 386.91 120.22 L 386.91 120.22 Q 388.86 119.1 391.6 119.1 L 391.6 119.1 L 391.6 119.1 Q 394.18 119.1 396.07 120.09 L 396.07 120.09 L 396.07 120.09 Q 397.96 121.08 399 122.98 L 399 122.98 L 399 122.98 Q 400.04 124.88 400.04 127.62 L 400.04 127.62 L 400.04 127.62 Q 400.04 127.78 400.03 128.27 L 400.03 128.27 L 400.03 128.27 Q 400.02 128.76 399.98 128.92 L 399.98 128.92 L 399.98 128.92 Z  M 387.8 125.78 L 395.28 125.78 L 395.28 125.78 Q 395.26 125.14 394.89 124.4 L 394.89 124.4 L 394.89 124.4 Q 394.52 123.66 393.74 123.14 L 393.74 123.14 L 393.74 123.14 Q 392.96 122.62 391.66 122.62 L 391.66 122.62 L 391.66 122.62 Q 390.36 122.62 389.53 123.12 L 389.53 123.12 L 389.53 123.12 Q 388.7 123.62 388.28 124.35 L 388.28 124.35 L 388.28 124.35 Q 387.86 125.08 387.8 125.78 L 387.8 125.78 L 387.8 125.78 Z  M 419.56 128.92 L 407.24 128.92 L 407.24 128.92 Q 407.3 130.04 407.84 130.92 L 407.84 130.92 L 407.84 130.92 Q 408.38 131.8 409.41 132.3 L 409.41 132.3 L 409.41 132.3 Q 410.44 132.8 411.88 132.8 L 411.88 132.8 L 411.88 132.8 Q 413.18 132.8 414.17 132.48 L 414.17 132.48 L 414.17 132.48 Q 415.16 132.16 415.85 131.69 L 415.85 131.69 L 415.85 131.69 Q 416.54 131.22 416.88 130.78 L 416.88 130.78 L 418.98 133.9 L 418.98 133.9 Q 418.42 134.6 417.49 135.19 L 417.49 135.19 L 417.49 135.19 Q 416.56 135.78 415.13 136.13 L 415.13 136.13 L 415.13 136.13 Q 413.7 136.48 411.56 136.48 L 411.56 136.48 L 411.56 136.48 Q 408.86 136.48 406.82 135.42 L 406.82 135.42 L 406.82 135.42 Q 404.78 134.36 403.64 132.36 L 403.64 132.36 L 403.64 132.36 Q 402.5 130.36 402.5 127.6 L 402.5 127.6 L 402.5 127.6 Q 402.5 125.2 403.52 123.27 L 403.52 123.27 L 403.52 123.27 Q 404.54 121.34 406.49 120.22 L 406.49 120.22 L 406.49 120.22 Q 408.44 119.1 411.18 119.1 L 411.18 119.1 L 411.18 119.1 Q 413.76 119.1 415.65 120.09 L 415.65 120.09 L 415.65 120.09 Q 417.54 121.08 418.58 122.98 L 418.58 122.98 L 418.58 122.98 Q 419.62 124.88 419.62 127.62 L 419.62 127.62 L 419.62 127.62 Q 419.62 127.78 419.61 128.27 L 419.61 128.27 L 419.61 128.27 Q 419.6 128.76 419.56 128.92 L 419.56 128.92 L 419.56 128.92 Z  M 407.38 125.78 L 414.86 125.78 L 414.86 125.78 Q 414.84 125.14 414.47 124.4 L 414.47 124.4 L 414.47 124.4 Q 414.1 123.66 413.32 123.14 L 413.32 123.14 L 413.32 123.14 Q 412.54 122.62 411.24 122.62 L 411.24 122.62 L 411.24 122.62 Q 409.94 122.62 409.11 123.12 L 409.11 123.12 L 409.11 123.12 Q 408.28 123.62 407.86 124.35 L 407.86 124.35 L 407.86 124.35 Q 407.44 125.08 407.38 125.78 L 407.38 125.78 L 407.38 125.78 Z  M 428.08 133.14 L 428.08 144.32 L 423.04 144.32 L 423.04 119.58 L 428.14 119.58 L 428.14 122.24 L 428.14 122.24 Q 428.38 121.66 429.18 120.92 L 429.18 120.92 L 429.18 120.92 Q 429.98 120.18 431.27 119.64 L 431.27 119.64 L 431.27 119.64 Q 432.56 119.1 434.22 119.1 L 434.22 119.1 L 434.22 119.1 Q 436.56 119.1 438.3 120.24 L 438.3 120.24 L 438.3 120.24 Q 440.04 121.38 440.99 123.35 L 440.99 123.35 L 440.99 123.35 Q 441.94 125.32 441.94 127.8 L 441.94 127.8 L 441.94 127.8 Q 441.94 130.28 440.94 132.25 L 440.94 132.25 L 440.94 132.25 Q 439.94 134.22 438.16 135.35 L 438.16 135.35 L 438.16 135.35 Q 436.38 136.48 434.02 136.48 L 434.02 136.48 L 434.02 136.48 Q 432.24 136.48 430.96 135.84 L 430.96 135.84 L 430.96 135.84 Q 429.68 135.2 428.96 134.4 L 428.96 134.4 L 428.96 134.4 Q 428.24 133.6 428.08 133.14 L 428.08 133.14 L 428.08 133.14 Z  M 436.96 127.8 L 436.96 127.8 L 436.96 127.8 Q 436.96 126.42 436.37 125.37 L 436.37 125.37 L 436.37 125.37 Q 435.78 124.32 434.8 123.73 L 434.8 123.73 L 434.8 123.73 Q 433.82 123.14 432.62 123.14 L 432.62 123.14 L 432.62 123.14 Q 431.36 123.14 430.34 123.74 L 430.34 123.74 L 430.34 123.74 Q 429.32 124.34 428.73 125.39 L 428.73 125.39 L 428.73 125.39 Q 428.14 126.44 428.14 127.8 L 428.14 127.8 L 428.14 127.8 Q 428.14 129.16 428.73 130.21 L 428.73 130.21 L 428.73 130.21 Q 429.32 131.26 430.34 131.85 L 430.34 131.85 L 430.34 131.85 Q 431.36 132.44 432.62 132.44 L 432.62 132.44 L 432.62 132.44 Q 433.82 132.44 434.8 131.86 L 434.8 131.86 L 434.8 131.86 Q 435.78 131.28 436.37 130.23 L 436.37 130.23 L 436.37 130.23 Q 436.96 129.18 436.96 127.8 Z " fill-rule="evenodd" fill="rgb(93,93,93)"/></g><defs><filter id="uii70rucfKV3ucU4tZGMesWJllX5LuXn" x="-200%" y="-200%" width="400%" height="400%"><feOffset xmlns="http://www.w3.org/2000/svg" in="SourceAlpha" result="offOut" dx="5" dy="5"/><feGaussianBlur xmlns="http://www.w3.org/2000/svg" in="offOut" result="blurOut" stdDeviation="4"/><feComponentTransfer xmlns="http://www.w3.org/2000/svg" in="blurOut" result="opacOut"><feFuncA xmlns="http://www.w3.org/2000/svg" type="table" tableValues="0 0.5"/></feComponentTransfer><feBlend xmlns="http://www.w3.org/2000/svg" in="SourceGraphic" in2="opacOut" mode="normal"/></filter></defs><g filter="url(#uii70rucfKV3ucU4tZGMesWJllX5LuXn)"><path d=" M 166.1 64.4 L 166.1 64.4 L 166.1 64.4 Q 170.7 64.4 174.475 63.05 L 174.475 63.05 L 174.475 63.05 Q 178.25 61.7 180.1 60.4 L 180.1 60.4 L 186.5 73.1 L 186.5 73.1 Q 184.15 75.1 178.475 77.15 L 178.475 77.15 L 178.475 77.15 Q 172.8 79.2 165 79.2 L 165 79.2 L 165 79.2 Q 157.7 79.2 151.3 76.65 L 151.3 76.65 L 151.3 76.65 Q 144.9 74.1 140.025 69.475 L 140.025 69.475 L 140.025 69.475 Q 135.15 64.85 132.375 58.625 L 132.375 58.625 L 132.375 58.625 Q 129.6 52.4 129.6 45.1 L 129.6 45.1 L 129.6 45.1 Q 129.6 37.8 132.35 31.525 L 132.35 31.525 L 132.35 31.525 Q 135.1 25.25 139.975 20.6 L 139.975 20.6 L 139.975 20.6 Q 144.85 15.95 151.275 13.375 L 151.275 13.375 L 151.275 13.375 Q 157.7 10.8 165 10.8 L 165 10.8 L 165 10.8 Q 172.8 10.8 178.475 12.85 L 178.475 12.85 L 178.475 12.85 Q 184.15 14.9 186.5 16.9 L 186.5 16.9 L 180.1 29.6 L 180.1 29.6 Q 178.25 28.25 174.475 26.925 L 174.475 26.925 L 174.475 26.925 Q 170.7 25.6 166.1 25.6 L 166.1 25.6 L 166.1 25.6 Q 161 25.6 157.2 27.175 L 157.2 27.175 L 157.2 27.175 Q 153.4 28.75 150.85 31.5 L 150.85 31.5 L 150.85 31.5 Q 148.3 34.25 147.05 37.7 L 147.05 37.7 L 147.05 37.7 Q 145.8 41.15 145.8 44.95 L 145.8 44.95 L 145.8 44.95 Q 145.8 48.8 147.05 52.275 L 147.05 52.275 L 147.05 52.275 Q 148.3 55.75 150.85 58.5 L 150.85 58.5 L 150.85 58.5 Q 153.4 61.25 157.2 62.825 L 157.2 62.825 L 157.2 62.825 Q 161 64.4 166.1 64.4 Z  M 242.45 78 L 227.5 78 L 227.5 71.35 L 227.5 71.35 Q 227.05 72.35 225.225 74.25 L 225.225 74.25 L 225.225 74.25 Q 223.4 76.15 220.4 77.675 L 220.4 77.675 L 220.4 77.675 Q 217.4 79.2 213.4 79.2 L 213.4 79.2 L 213.4 79.2 Q 207.4 79.2 202.9 76.275 L 202.9 76.275 L 202.9 76.275 Q 198.4 73.35 195.9 68.425 L 195.9 68.425 L 195.9 68.425 Q 193.4 63.5 193.4 57.5 L 193.4 57.5 L 193.4 57.5 Q 193.4 51.5 195.9 46.575 L 195.9 46.575 L 195.9 46.575 Q 198.4 41.65 202.9 38.7 L 202.9 38.7 L 202.9 38.7 Q 207.4 35.75 213.4 35.75 L 213.4 35.75 L 213.4 35.75 Q 217.25 35.75 220.15 36.975 L 220.15 36.975 L 220.15 36.975 Q 223.05 38.2 224.85 39.875 L 224.85 39.875 L 224.85 39.875 Q 226.65 41.55 227.35 42.95 L 227.35 42.95 L 227.35 36.95 L 242.45 36.95 L 242.45 78 L 242.45 78 Z  M 208.3 57.5 L 208.3 57.5 L 208.3 57.5 Q 208.3 60.3 209.6 62.525 L 209.6 62.525 L 209.6 62.525 Q 210.9 64.75 213.075 66 L 213.075 66 L 213.075 66 Q 215.25 67.25 217.9 67.25 L 217.9 67.25 L 217.9 67.25 Q 220.65 67.25 222.75 66 L 222.75 66 L 222.75 66 Q 224.85 64.75 226.075 62.525 L 226.075 62.525 L 226.075 62.525 Q 227.3 60.3 227.3 57.5 L 227.3 57.5 L 227.3 57.5 Q 227.3 54.7 226.075 52.475 L 226.075 52.475 L 226.075 52.475 Q 224.85 50.25 222.75 48.975 L 222.75 48.975 L 222.75 48.975 Q 220.65 47.7 217.9 47.7 L 217.9 47.7 L 217.9 47.7 Q 215.25 47.7 213.075 48.975 L 213.075 48.975 L 213.075 48.975 Q 210.9 50.25 209.6 52.475 L 209.6 52.475 L 209.6 52.475 Q 208.3 54.7 208.3 57.5 Z  M 267.3 9.2 L 267.3 78 L 252.05 78 L 252.05 9.2 L 267.3 9.2 L 267.3 9.2 Z  M 318.9 60.7 L 289.2 60.7 L 289.2 60.7 Q 289.35 62.9 290.6 64.6 L 290.6 64.6 L 290.6 64.6 Q 291.85 66.3 294.075 67.275 L 294.075 67.275 L 294.075 67.275 Q 296.3 68.25 299.35 68.25 L 299.35 68.25 L 299.35 68.25 Q 302.25 68.25 304.575 67.65 L 304.575 67.65 L 304.575 67.65 Q 306.9 67.05 308.625 66.15 L 308.625 66.15 L 308.625 66.15 Q 310.35 65.25 311.3 64.3 L 311.3 64.3 L 317.2 73.7 L 317.2 73.7 Q 315.95 75.05 313.675 76.325 L 313.675 76.325 L 313.675 76.325 Q 311.4 77.6 307.7 78.4 L 307.7 78.4 L 307.7 78.4 Q 304 79.2 298.35 79.2 L 298.35 79.2 L 298.35 79.2 Q 291.55 79.2 286.25 76.65 L 286.25 76.65 L 286.25 76.65 Q 280.95 74.1 277.9 69.15 L 277.9 69.15 L 277.9 69.15 Q 274.85 64.2 274.85 57.05 L 274.85 57.05 L 274.85 57.05 Q 274.85 51.05 277.475 46.225 L 277.475 46.225 L 277.475 46.225 Q 280.1 41.4 285.1 38.575 L 285.1 38.575 L 285.1 38.575 Q 290.1 35.75 297.15 35.75 L 297.15 35.75 L 297.15 35.75 Q 303.85 35.75 308.775 38.2 L 308.775 38.2 L 308.775 38.2 Q 313.7 40.65 316.375 45.475 L 316.375 45.475 L 316.375 45.475 Q 319.05 50.3 319.05 57.5 L 319.05 57.5 L 319.05 57.5 Q 319.05 57.9 319.025 59.1 L 319.025 59.1 L 319.025 59.1 Q 319 60.3 318.9 60.7 L 318.9 60.7 L 318.9 60.7 Z  M 289.55 52.75 L 304.75 52.75 L 304.75 52.75 Q 304.7 51.15 303.9 49.575 L 303.9 49.575 L 303.9 49.575 Q 303.1 48 301.5 46.975 L 301.5 46.975 L 301.5 46.975 Q 299.9 45.95 297.4 45.95 L 297.4 45.95 L 297.4 45.95 Q 294.9 45.95 293.175 46.925 L 293.175 46.925 L 293.175 46.925 Q 291.45 47.9 290.55 49.45 L 290.55 49.45 L 290.55 49.45 Q 289.65 51 289.55 52.75 L 289.55 52.75 L 289.55 52.75 Z  M 355.15 35.75 L 355.15 35.75 L 355.15 35.75 Q 359.45 35.75 363.55 37.5 L 363.55 37.5 L 363.55 37.5 Q 367.65 39.25 370.3 43.025 L 370.3 43.025 L 370.3 43.025 Q 372.95 46.8 372.95 52.95 L 372.95 52.95 L 372.95 78 L 357.7 78 L 357.7 55.45 L 357.7 55.45 Q 357.7 51.05 355.6 48.825 L 355.6 48.825 L 355.6 48.825 Q 353.5 46.6 350.1 46.6 L 350.1 46.6 L 350.1 46.6 Q 347.85 46.6 345.875 47.775 L 345.875 47.775 L 345.875 47.775 Q 343.9 48.95 342.675 51.075 L 342.675 51.075 L 342.675 51.075 Q 341.45 53.2 341.45 55.95 L 341.45 55.95 L 341.45 78 L 326.25 78 L 326.25 36.95 L 341.45 36.95 L 341.45 43 L 341.45 43 Q 342.05 41.35 343.975 39.675 L 343.975 39.675 L 343.975 39.675 Q 345.9 38 348.825 36.875 L 348.825 36.875 L 348.825 36.875 Q 351.75 35.75 355.15 35.75 Z  M 378.3 49.45 L 378.3 36.95 L 385.3 36.95 L 385.3 20.1 L 400.35 20.1 L 400.35 36.95 L 409.55 36.95 L 409.55 49.45 L 400.35 49.45 L 400.35 60.9 L 400.35 60.9 Q 400.35 63.45 401.1 65.025 L 401.1 65.025 L 401.1 65.025 Q 401.85 66.6 403.85 66.6 L 403.85 66.6 L 403.85 66.6 Q 405.2 66.6 406.15 66 L 406.15 66 L 406.15 66 Q 407.1 65.4 407.3 65.2 L 407.3 65.2 L 412.5 76 L 412.5 76 Q 412.15 76.3 410.325 77.1 L 410.325 77.1 L 410.325 77.1 Q 408.5 77.9 405.7 78.55 L 405.7 78.55 L 405.7 78.55 Q 402.9 79.2 399.45 79.2 L 399.45 79.2 L 399.45 79.2 Q 393.3 79.2 389.3 75.725 L 389.3 75.725 L 389.3 75.725 Q 385.3 72.25 385.3 65 L 385.3 65 L 385.3 49.45 L 378.3 49.45 L 378.3 49.45 Z  M 464.95 78 L 450 78 L 450 71.35 L 450 71.35 Q 449.55 72.35 447.725 74.25 L 447.725 74.25 L 447.725 74.25 Q 445.9 76.15 442.9 77.675 L 442.9 77.675 L 442.9 77.675 Q 439.9 79.2 435.9 79.2 L 435.9 79.2 L 435.9 79.2 Q 429.9 79.2 425.4 76.275 L 425.4 76.275 L 425.4 76.275 Q 420.9 73.35 418.4 68.425 L 418.4 68.425 L 418.4 68.425 Q 415.9 63.5 415.9 57.5 L 415.9 57.5 L 415.9 57.5 Q 415.9 51.5 418.4 46.575 L 418.4 46.575 L 418.4 46.575 Q 420.9 41.65 425.4 38.7 L 425.4 38.7 L 425.4 38.7 Q 429.9 35.75 435.9 35.75 L 435.9 35.75 L 435.9 35.75 Q 439.75 35.75 442.65 36.975 L 442.65 36.975 L 442.65 36.975 Q 445.55 38.2 447.35 39.875 L 447.35 39.875 L 447.35 39.875 Q 449.15 41.55 449.85 42.95 L 449.85 42.95 L 449.85 36.95 L 464.95 36.95 L 464.95 78 L 464.95 78 Z  M 430.8 57.5 L 430.8 57.5 L 430.8 57.5 Q 430.8 60.3 432.1 62.525 L 432.1 62.525 L 432.1 62.525 Q 433.4 64.75 435.575 66 L 435.575 66 L 435.575 66 Q 437.75 67.25 440.4 67.25 L 440.4 67.25 L 440.4 67.25 Q 443.15 67.25 445.25 66 L 445.25 66 L 445.25 66 Q 447.35 64.75 448.575 62.525 L 448.575 62.525 L 448.575 62.525 Q 449.8 60.3 449.8 57.5 L 449.8 57.5 L 449.8 57.5 Q 449.8 54.7 448.575 52.475 L 448.575 52.475 L 448.575 52.475 Q 447.35 50.25 445.25 48.975 L 445.25 48.975 L 445.25 48.975 Q 443.15 47.7 440.4 47.7 L 440.4 47.7 L 440.4 47.7 Q 437.75 47.7 435.575 48.975 L 435.575 48.975 L 435.575 48.975 Q 433.4 50.25 432.1 52.475 L 432.1 52.475 L 432.1 52.475 Q 430.8 54.7 430.8 57.5 Z  M 493 35.75 L 493 35.75 L 493 35.75 Q 497.05 35.75 500.4 36.425 L 500.4 36.425 L 500.4 36.425 Q 503.75 37.1 506.025 37.95 L 506.025 37.95 L 506.025 37.95 Q 508.3 38.8 508.95 39.35 L 508.95 39.35 L 504 48.3 L 504 48.3 Q 503.05 47.6 500.475 46.5 L 500.475 46.5 L 500.475 46.5 Q 497.9 45.4 494.75 45.4 L 494.75 45.4 L 494.75 45.4 Q 492.35 45.4 490.7 46.125 L 490.7 46.125 L 490.7 46.125 Q 489.05 46.85 489.05 48.4 L 489.05 48.4 L 489.05 48.4 Q 489.05 49.95 490.875 50.875 L 490.875 50.875 L 490.875 50.875 Q 492.7 51.8 496.15 52.5 L 496.15 52.5 L 496.15 52.5 Q 499.15 53.1 502.25 54.4 L 502.25 54.4 L 502.25 54.4 Q 505.35 55.7 507.425 58.225 L 507.425 58.225 L 507.425 58.225 Q 509.5 60.75 509.5 64.95 L 509.5 64.95 L 509.5 64.95 Q 509.5 69.25 507.65 72.05 L 507.65 72.05 L 507.65 72.05 Q 505.8 74.85 502.75 76.4 L 502.75 76.4 L 502.75 76.4 Q 499.7 77.95 496.15 78.575 L 496.15 78.575 L 496.15 78.575 Q 492.6 79.2 489.25 79.2 L 489.25 79.2 L 489.25 79.2 Q 484.55 79.2 481.075 78.35 L 481.075 78.35 L 481.075 78.35 Q 477.6 77.5 475.45 76.4 L 475.45 76.4 L 475.45 76.4 Q 473.3 75.3 472.45 74.65 L 472.45 74.65 L 477.35 64.65 L 477.35 64.65 Q 478.65 65.75 481.6 67.125 L 481.6 67.125 L 481.6 67.125 Q 484.55 68.5 487.85 68.5 L 487.85 68.5 L 487.85 68.5 Q 491.05 68.5 492.8 67.55 L 492.8 67.55 L 492.8 67.55 Q 494.55 66.6 494.55 65.05 L 494.55 65.05 L 494.55 65.05 Q 494.55 63.8 493.7 63.05 L 493.7 63.05 L 493.7 63.05 Q 492.85 62.3 491.3 61.75 L 491.3 61.75 L 491.3 61.75 Q 489.75 61.2 487.55 60.75 L 487.55 60.75 L 487.55 60.75 Q 485.55 60.35 483.3 59.5 L 483.3 59.5 L 483.3 59.5 Q 481.05 58.65 479.05 57.175 L 479.05 57.175 L 479.05 57.175 Q 477.05 55.7 475.8 53.45 L 475.8 53.45 L 475.8 53.45 Q 474.55 51.2 474.55 48 L 474.55 48 L 474.55 48 Q 474.55 43.9 477.2 41.2 L 477.2 41.2 L 477.2 41.2 Q 479.85 38.5 484.05 37.125 L 484.05 37.125 L 484.05 37.125 Q 488.25 35.75 493 35.75 Z  M 531.35 51.25 L 545.6 36.95 L 562.8 36.95 L 543.45 56.55 L 564.8 78 L 547.2 78 L 531.35 61.5 L 531.35 78 L 516.15 78 L 516.15 9.2 L 531.35 9.2 L 531.35 51.25 L 531.35 51.25 Z  M 610.65 60.7 L 580.95 60.7 L 580.95 60.7 Q 581.1 62.9 582.35 64.6 L 582.35 64.6 L 582.35 64.6 Q 583.6 66.3 585.825 67.275 L 585.825 67.275 L 585.825 67.275 Q 588.05 68.25 591.1 68.25 L 591.1 68.25 L 591.1 68.25 Q 594 68.25 596.325 67.65 L 596.325 67.65 L 596.325 67.65 Q 598.65 67.05 600.375 66.15 L 600.375 66.15 L 600.375 66.15 Q 602.1 65.25 603.05 64.3 L 603.05 64.3 L 608.95 73.7 L 608.95 73.7 Q 607.7 75.05 605.425 76.325 L 605.425 76.325 L 605.425 76.325 Q 603.15 77.6 599.45 78.4 L 599.45 78.4 L 599.45 78.4 Q 595.75 79.2 590.1 79.2 L 590.1 79.2 L 590.1 79.2 Q 583.3 79.2 578 76.65 L 578 76.65 L 578 76.65 Q 572.7 74.1 569.65 69.15 L 569.65 69.15 L 569.65 69.15 Q 566.6 64.2 566.6 57.05 L 566.6 57.05 L 566.6 57.05 Q 566.6 51.05 569.225 46.225 L 569.225 46.225 L 569.225 46.225 Q 571.85 41.4 576.85 38.575 L 576.85 38.575 L 576.85 38.575 Q 581.85 35.75 588.9 35.75 L 588.9 35.75 L 588.9 35.75 Q 595.6 35.75 600.525 38.2 L 600.525 38.2 L 600.525 38.2 Q 605.45 40.65 608.125 45.475 L 608.125 45.475 L 608.125 45.475 Q 610.8 50.3 610.8 57.5 L 610.8 57.5 L 610.8 57.5 Q 610.8 57.9 610.775 59.1 L 610.775 59.1 L 610.775 59.1 Q 610.75 60.3 610.65 60.7 L 610.65 60.7 L 610.65 60.7 Z  M 581.3 52.75 L 596.5 52.75 L 596.5 52.75 Q 596.45 51.15 595.65 49.575 L 595.65 49.575 L 595.65 49.575 Q 594.85 48 593.25 46.975 L 593.25 46.975 L 593.25 46.975 Q 591.65 45.95 589.15 45.95 L 589.15 45.95 L 589.15 45.95 Q 586.65 45.95 584.925 46.925 L 584.925 46.925 L 584.925 46.925 Q 583.2 47.9 582.3 49.45 L 582.3 49.45 L 582.3 49.45 Q 581.4 51 581.3 52.75 L 581.3 52.75 L 581.3 52.75 Z  M 632.55 57.4 L 632.55 78 L 617.35 78 L 617.35 36.95 L 632.55 36.95 L 632.55 43.3 L 632.3 43.3 L 632.3 43.3 Q 632.7 42.15 634.25 40.375 L 634.25 40.375 L 634.25 40.375 Q 635.8 38.6 638.6 37.175 L 638.6 37.175 L 638.6 37.175 Q 641.4 35.75 645.45 35.75 L 645.45 35.75 L 645.45 35.75 Q 648.3 35.75 650.7 36.625 L 650.7 36.625 L 650.7 36.625 Q 653.1 37.5 654.2 38.3 L 654.2 38.3 L 648.3 50.65 L 648.3 50.65 Q 647.6 49.8 645.825 48.875 L 645.825 48.875 L 645.825 48.875 Q 644.05 47.95 641.4 47.95 L 641.4 47.95 L 641.4 47.95 Q 638.35 47.95 636.375 49.5 L 636.375 49.5 L 636.375 49.5 Q 634.4 51.05 633.475 53.25 L 633.475 53.25 L 633.475 53.25 Q 632.55 55.45 632.55 57.4 L 632.55 57.4 L 632.55 57.4 Z " fill-rule="evenodd" fill="rgb(93,93,93)"/></g><defs><filter id="zHblc1rJAduQ0eqMclsWbIZltt71QLXR" x="-200%" y="-200%" width="400%" height="400%"><feOffset xmlns="http://www.w3.org/2000/svg" in="SourceAlpha" result="offOut" dx="0" dy="0"/><feGaussianBlur xmlns="http://www.w3.org/2000/svg" in="offOut" result="blurOut" stdDeviation="2.5"/><feComponentTransfer xmlns="http://www.w3.org/2000/svg" in="blurOut" result="opacOut"><feFuncA xmlns="http://www.w3.org/2000/svg" type="table" tableValues="0 0.5"/></feComponentTransfer><feBlend xmlns="http://www.w3.org/2000/svg" in="SourceGraphic" in2="opacOut" mode="normal"/></filter></defs><g filter="url(#zHblc1rJAduQ0eqMclsWbIZltt71QLXR)"><path d="M 134 86 L 658 86 C 661.863 86 665 89.137 665 93 L 665 93 C 665 96.863 661.863 100 658 100 L 134 100 C 130.137 100 127 96.863 127 93 L 127 93 C 127 89.137 130.137 86 134 86 Z" style="stroke:none;fill:#FF4500;stroke-miterlimit:10;"/></g><g id="Icon" filter="url(#XlA2MpnLjWoRLvrQBvzu6trLBniXOP5d)"><path d="M 24.195 0 L 105.805 0 C 110.88 0 115 4.12 115 9.195 L 115 90.805 C 115 95.88 110.88 100 105.805 100 L 24.195 100 C 19.12 100 15 95.88 15 90.805 L 15 9.195 C 15 4.12 19.12 0 24.195 0 Z" style="stroke:none;fill:#FFFFFF;stroke-miterlimit:10;"/><g id="Group"><path d="M 21.929 0 L 108.071 0 C 111.895 0 115 3.105 115 6.929 L 115 18.071 C 115 21.895 111.895 25 108.071 25 L 21.929 25 C 18.105 25 15 21.895 15 18.071 L 15 6.929 C 15 3.105 18.105 0 21.929 0 Z" style="stroke:none;fill:#FF4500;stroke-miterlimit:10;"/><rect x="15" y="15" width="100" height="10" transform="matrix(1,0,0,1,0,0)" fill="rgb(255,69,0)"/></g><g id="Group"><path d="M 31.272 72 L 113.728 72 C 119.949 72 125 76.929 125 83 L 125 83 C 125 89.071 119.949 94 113.728 94 L 31.272 94 C 25.051 94 20 89.071 20 83 L 20 83 C 20 76.929 25.051 72 31.272 72 Z" style="stroke:none;fill:#B9B9B9;stroke-miterlimit:10;"/><path d="M 16.272 45 L 98.728 45 C 104.949 45 110 49.929 110 56 L 110 56 C 110 62.071 104.949 67 98.728 67 L 16.272 67 C 10.051 67 5 62.071 5 56 L 5 56 C 5 49.929 10.051 45 16.272 45 Z" style="stroke:none;fill:#B9B9B9;stroke-miterlimit:10;"/><path d="M 31.272 18 L 113.728 18 C 119.949 18 125 22.929 125 29 L 125 29 C 125 35.071 119.949 40 113.728 40 L 31.272 40 C 25.051 40 20 35.071 20 29 L 20 29 C 20 22.929 25.051 18 31.272 18 Z" style="stroke:none;fill:#B9B9B9;stroke-miterlimit:10;"/></g></g><defs><filter id="XlA2MpnLjWoRLvrQBvzu6trLBniXOP5d" x="-200%" y="-200%" width="400%" height="400%"><feOffset xmlns="http://www.w3.org/2000/svg" in="SourceAlpha" result="offOut" dx="0" dy="0"/><feGaussianBlur xmlns="http://www.w3.org/2000/svg" in="offOut" result="blurOut" stdDeviation="2.5"/><feComponentTransfer xmlns="http://www.w3.org/2000/svg" in="blurOut" result="opacOut"><feFuncA xmlns="http://www.w3.org/2000/svg" type="table" tableValues="0 0.5"/></feComponentTransfer><feBlend xmlns="http://www.w3.org/2000/svg" in="SourceGraphic" in2="opacOut" mode="normal"/></filter></defs></svg>