<?xml version="1.0" standalone="no"?><!-- Generator: Gravit.io --><svg xmlns="http://www.w3.org/2000/svg" xmlns:xlink="http://www.w3.org/1999/xlink" style="isolation:isolate" viewBox="-10 -15 688.2 136" width="688.2" height="136"><defs><filter id="8axR8agtK9ykAgkT86sZSc3ElimOCpne" x="-200%" y="-200%" width="400%" height="400%"><feOffset xmlns="http://www.w3.org/2000/svg" in="SourceAlpha" result="offOut" dx="5" dy="5"/><feGaussianBlur xmlns="http://www.w3.org/2000/svg" in="offOut" result="blurOut" stdDeviation="4"/><feComponentTransfer xmlns="http://www.w3.org/2000/svg" in="blurOut" result="opacOut"><feFuncA xmlns="http://www.w3.org/2000/svg" type="table" tableValues="0 0.5"/></feComponentTransfer><feBlend xmlns="http://www.w3.org/2000/svg" in="SourceGraphic" in2="opacOut" mode="normal"/></filter></defs><g filter="url(#8axR8agtK9ykAgkT86sZSc3ElimOCpne)"><path d=" M 166.1 64.4 L 166.1 64.4 L 166.1 64.4 Q 170.7 64.4 174.475 63.05 L 174.475 63.05 L 174.475 63.05 Q 178.25 61.7 180.1 60.4 L 180.1 60.4 L 186.5 73.1 L 186.5 73.1 Q 184.15 75.1 178.475 77.15 L 178.475 77.15 L 178.475 77.15 Q 172.8 79.2 165 79.2 L 165 79.2 L 165 79.2 Q 157.7 79.2 151.3 76.65 L 151.3 76.65 L 151.3 76.65 Q 144.9 74.1 140.025 69.475 L 140.025 69.475 L 140.025 69.475 Q 135.15 64.85 132.375 58.625 L 132.375 58.625 L 132.375 58.625 Q 129.6 52.4 129.6 45.1 L 129.6 45.1 L 129.6 45.1 Q 129.6 37.8 132.35 31.525 L 132.35 31.525 L 132.35 31.525 Q 135.1 25.25 139.975 20.6 L 139.975 20.6 L 139.975 20.6 Q 144.85 15.95 151.275 13.375 L 151.275 13.375 L 151.275 13.375 Q 157.7 10.8 165 10.8 L 165 10.8 L 165 10.8 Q 172.8 10.8 178.475 12.85 L 178.475 12.85 L 178.475 12.85 Q 184.15 14.9 186.5 16.9 L 186.5 16.9 L 180.1 29.6 L 180.1 29.6 Q 178.25 28.25 174.475 26.925 L 174.475 26.925 L 174.475 26.925 Q 170.7 25.6 166.1 25.6 L 166.1 25.6 L 166.1 25.6 Q 161 25.6 157.2 27.175 L 157.2 27.175 L 157.2 27.175 Q 153.4 28.75 150.85 31.5 L 150.85 31.5 L 150.85 31.5 Q 148.3 34.25 147.05 37.7 L 147.05 37.7 L 147.05 37.7 Q 145.8 41.15 145.8 44.95 L 145.8 44.95 L 145.8 44.95 Q 145.8 48.8 147.05 52.275 L 147.05 52.275 L 147.05 52.275 Q 148.3 55.75 150.85 58.5 L 150.85 58.5 L 150.85 58.5 Q 153.4 61.25 157.2 62.825 L 157.2 62.825 L 157.2 62.825 Q 161 64.4 166.1 64.4 Z  M 242.45 78 L 227.5 78 L 227.5 71.35 L 227.5 71.35 Q 227.05 72.35 225.225 74.25 L 225.225 74.25 L 225.225 74.25 Q 223.4 76.15 220.4 77.675 L 220.4 77.675 L 220.4 77.675 Q 217.4 79.2 213.4 79.2 L 213.4 79.2 L 213.4 79.2 Q 207.4 79.2 202.9 76.275 L 202.9 76.275 L 202.9 76.275 Q 198.4 73.35 195.9 68.425 L 195.9 68.425 L 195.9 68.425 Q 193.4 63.5 193.4 57.5 L 193.4 57.5 L 193.4 57.5 Q 193.4 51.5 195.9 46.575 L 195.9 46.575 L 195.9 46.575 Q 198.4 41.65 202.9 38.7 L 202.9 38.7 L 202.9 38.7 Q 207.4 35.75 213.4 35.75 L 213.4 35.75 L 213.4 35.75 Q 217.25 35.75 220.15 36.975 L 220.15 36.975 L 220.15 36.975 Q 223.05 38.2 224.85 39.875 L 224.85 39.875 L 224.85 39.875 Q 226.65 41.55 227.35 42.95 L 227.35 42.95 L 227.35 36.95 L 242.45 36.95 L 242.45 78 L 242.45 78 Z  M 208.3 57.5 L 208.3 57.5 L 208.3 57.5 Q 208.3 60.3 209.6 62.525 L 209.6 62.525 L 209.6 62.525 Q 210.9 64.75 213.075 66 L 213.075 66 L 213.075 66 Q 215.25 67.25 217.9 67.25 L 217.9 67.25 L 217.9 67.25 Q 220.65 67.25 222.75 66 L 222.75 66 L 222.75 66 Q 224.85 64.75 226.075 62.525 L 226.075 62.525 L 226.075 62.525 Q 227.3 60.3 227.3 57.5 L 227.3 57.5 L 227.3 57.5 Q 227.3 54.7 226.075 52.475 L 226.075 52.475 L 226.075 52.475 Q 224.85 50.25 222.75 48.975 L 222.75 48.975 L 222.75 48.975 Q 220.65 47.7 217.9 47.7 L 217.9 47.7 L 217.9 47.7 Q 215.25 47.7 213.075 48.975 L 213.075 48.975 L 213.075 48.975 Q 210.9 50.25 209.6 52.475 L 209.6 52.475 L 209.6 52.475 Q 208.3 54.7 208.3 57.5 Z  M 267.3 9.2 L 267.3 78 L 252.05 78 L 252.05 9.2 L 267.3 9.2 L 267.3 9.2 Z  M 318.9 60.7 L 289.2 60.7 L 289.2 60.7 Q 289.35 62.9 290.6 64.6 L 290.6 64.6 L 290.6 64.6 Q 291.85 66.3 294.075 67.275 L 294.075 67.275 L 294.075 67.275 Q 296.3 68.25 299.35 68.25 L 299.35 68.25 L 299.35 68.25 Q 302.25 68.25 304.575 67.65 L 304.575 67.65 L 304.575 67.65 Q 306.9 67.05 308.625 66.15 L 308.625 66.15 L 308.625 66.15 Q 310.35 65.25 311.3 64.3 L 311.3 64.3 L 317.2 73.7 L 317.2 73.7 Q 315.95 75.05 313.675 76.325 L 313.675 76.325 L 313.675 76.325 Q 311.4 77.6 307.7 78.4 L 307.7 78.4 L 307.7 78.4 Q 304 79.2 298.35 79.2 L 298.35 79.2 L 298.35 79.2 Q 291.55 79.2 286.25 76.65 L 286.25 76.65 L 286.25 76.65 Q 280.95 74.1 277.9 69.15 L 277.9 69.15 L 277.9 69.15 Q 274.85 64.2 274.85 57.05 L 274.85 57.05 L 274.85 57.05 Q 274.85 51.05 277.475 46.225 L 277.475 46.225 L 277.475 46.225 Q 280.1 41.4 285.1 38.575 L 285.1 38.575 L 285.1 38.575 Q 290.1 35.75 297.15 35.75 L 297.15 35.75 L 297.15 35.75 Q 303.85 35.75 308.775 38.2 L 308.775 38.2 L 308.775 38.2 Q 313.7 40.65 316.375 45.475 L 316.375 45.475 L 316.375 45.475 Q 319.05 50.3 319.05 57.5 L 319.05 57.5 L 319.05 57.5 Q 319.05 57.9 319.025 59.1 L 319.025 59.1 L 319.025 59.1 Q 319 60.3 318.9 60.7 L 318.9 60.7 L 318.9 60.7 Z  M 289.55 52.75 L 304.75 52.75 L 304.75 52.75 Q 304.7 51.15 303.9 49.575 L 303.9 49.575 L 303.9 49.575 Q 303.1 48 301.5 46.975 L 301.5 46.975 L 301.5 46.975 Q 299.9 45.95 297.4 45.95 L 297.4 45.95 L 297.4 45.95 Q 294.9 45.95 293.175 46.925 L 293.175 46.925 L 293.175 46.925 Q 291.45 47.9 290.55 49.45 L 290.55 49.45 L 290.55 49.45 Q 289.65 51 289.55 52.75 L 289.55 52.75 L 289.55 52.75 Z  M 355.15 35.75 L 355.15 35.75 L 355.15 35.75 Q 359.45 35.75 363.55 37.5 L 363.55 37.5 L 363.55 37.5 Q 367.65 39.25 370.3 43.025 L 370.3 43.025 L 370.3 43.025 Q 372.95 46.8 372.95 52.95 L 372.95 52.95 L 372.95 78 L 357.7 78 L 357.7 55.45 L 357.7 55.45 Q 357.7 51.05 355.6 48.825 L 355.6 48.825 L 355.6 48.825 Q 353.5 46.6 350.1 46.6 L 350.1 46.6 L 350.1 46.6 Q 347.85 46.6 345.875 47.775 L 345.875 47.775 L 345.875 47.775 Q 343.9 48.95 342.675 51.075 L 342.675 51.075 L 342.675 51.075 Q 341.45 53.2 341.45 55.95 L 341.45 55.95 L 341.45 78 L 326.25 78 L 326.25 36.95 L 341.45 36.95 L 341.45 43 L 341.45 43 Q 342.05 41.35 343.975 39.675 L 343.975 39.675 L 343.975 39.675 Q 345.9 38 348.825 36.875 L 348.825 36.875 L 348.825 36.875 Q 351.75 35.75 355.15 35.75 Z  M 378.3 49.45 L 378.3 36.95 L 385.3 36.95 L 385.3 20.1 L 400.35 20.1 L 400.35 36.95 L 409.55 36.95 L 409.55 49.45 L 400.35 49.45 L 400.35 60.9 L 400.35 60.9 Q 400.35 63.45 401.1 65.025 L 401.1 65.025 L 401.1 65.025 Q 401.85 66.6 403.85 66.6 L 403.85 66.6 L 403.85 66.6 Q 405.2 66.6 406.15 66 L 406.15 66 L 406.15 66 Q 407.1 65.4 407.3 65.2 L 407.3 65.2 L 412.5 76 L 412.5 76 Q 412.15 76.3 410.325 77.1 L 410.325 77.1 L 410.325 77.1 Q 408.5 77.9 405.7 78.55 L 405.7 78.55 L 405.7 78.55 Q 402.9 79.2 399.45 79.2 L 399.45 79.2 L 399.45 79.2 Q 393.3 79.2 389.3 75.725 L 389.3 75.725 L 389.3 75.725 Q 385.3 72.25 385.3 65 L 385.3 65 L 385.3 49.45 L 378.3 49.45 L 378.3 49.45 Z  M 464.95 78 L 450 78 L 450 71.35 L 450 71.35 Q 449.55 72.35 447.725 74.25 L 447.725 74.25 L 447.725 74.25 Q 445.9 76.15 442.9 77.675 L 442.9 77.675 L 442.9 77.675 Q 439.9 79.2 435.9 79.2 L 435.9 79.2 L 435.9 79.2 Q 429.9 79.2 425.4 76.275 L 425.4 76.275 L 425.4 76.275 Q 420.9 73.35 418.4 68.425 L 418.4 68.425 L 418.4 68.425 Q 415.9 63.5 415.9 57.5 L 415.9 57.5 L 415.9 57.5 Q 415.9 51.5 418.4 46.575 L 418.4 46.575 L 418.4 46.575 Q 420.9 41.65 425.4 38.7 L 425.4 38.7 L 425.4 38.7 Q 429.9 35.75 435.9 35.75 L 435.9 35.75 L 435.9 35.75 Q 439.75 35.75 442.65 36.975 L 442.65 36.975 L 442.65 36.975 Q 445.55 38.2 447.35 39.875 L 447.35 39.875 L 447.35 39.875 Q 449.15 41.55 449.85 42.95 L 449.85 42.95 L 449.85 36.95 L 464.95 36.95 L 464.95 78 L 464.95 78 Z  M 430.8 57.5 L 430.8 57.5 L 430.8 57.5 Q 430.8 60.3 432.1 62.525 L 432.1 62.525 L 432.1 62.525 Q 433.4 64.75 435.575 66 L 435.575 66 L 435.575 66 Q 437.75 67.25 440.4 67.25 L 440.4 67.25 L 440.4 67.25 Q 443.15 67.25 445.25 66 L 445.25 66 L 445.25 66 Q 447.35 64.75 448.575 62.525 L 448.575 62.525 L 448.575 62.525 Q 449.8 60.3 449.8 57.5 L 449.8 57.5 L 449.8 57.5 Q 449.8 54.7 448.575 52.475 L 448.575 52.475 L 448.575 52.475 Q 447.35 50.25 445.25 48.975 L 445.25 48.975 L 445.25 48.975 Q 443.15 47.7 440.4 47.7 L 440.4 47.7 L 440.4 47.7 Q 437.75 47.7 435.575 48.975 L 435.575 48.975 L 435.575 48.975 Q 433.4 50.25 432.1 52.475 L 432.1 52.475 L 432.1 52.475 Q 430.8 54.7 430.8 57.5 Z  M 493 35.75 L 493 35.75 L 493 35.75 Q 497.05 35.75 500.4 36.425 L 500.4 36.425 L 500.4 36.425 Q 503.75 37.1 506.025 37.95 L 506.025 37.95 L 506.025 37.95 Q 508.3 38.8 508.95 39.35 L 508.95 39.35 L 504 48.3 L 504 48.3 Q 503.05 47.6 500.475 46.5 L 500.475 46.5 L 500.475 46.5 Q 497.9 45.4 494.75 45.4 L 494.75 45.4 L 494.75 45.4 Q 492.35 45.4 490.7 46.125 L 490.7 46.125 L 490.7 46.125 Q 489.05 46.85 489.05 48.4 L 489.05 48.4 L 489.05 48.4 Q 489.05 49.95 490.875 50.875 L 490.875 50.875 L 490.875 50.875 Q 492.7 51.8 496.15 52.5 L 496.15 52.5 L 496.15 52.5 Q 499.15 53.1 502.25 54.4 L 502.25 54.4 L 502.25 54.4 Q 505.35 55.7 507.425 58.225 L 507.425 58.225 L 507.425 58.225 Q 509.5 60.75 509.5 64.95 L 509.5 64.95 L 509.5 64.95 Q 509.5 69.25 507.65 72.05 L 507.65 72.05 L 507.65 72.05 Q 505.8 74.85 502.75 76.4 L 502.75 76.4 L 502.75 76.4 Q 499.7 77.95 496.15 78.575 L 496.15 78.575 L 496.15 78.575 Q 492.6 79.2 489.25 79.2 L 489.25 79.2 L 489.25 79.2 Q 484.55 79.2 481.075 78.35 L 481.075 78.35 L 481.075 78.35 Q 477.6 77.5 475.45 76.4 L 475.45 76.4 L 475.45 76.4 Q 473.3 75.3 472.45 74.65 L 472.45 74.65 L 477.35 64.65 L 477.35 64.65 Q 478.65 65.75 481.6 67.125 L 481.6 67.125 L 481.6 67.125 Q 484.55 68.5 487.85 68.5 L 487.85 68.5 L 487.85 68.5 Q 491.05 68.5 492.8 67.55 L 492.8 67.55 L 492.8 67.55 Q 494.55 66.6 494.55 65.05 L 494.55 65.05 L 494.55 65.05 Q 494.55 63.8 493.7 63.05 L 493.7 63.05 L 493.7 63.05 Q 492.85 62.3 491.3 61.75 L 491.3 61.75 L 491.3 61.75 Q 489.75 61.2 487.55 60.75 L 487.55 60.75 L 487.55 60.75 Q 485.55 60.35 483.3 59.5 L 483.3 59.5 L 483.3 59.5 Q 481.05 58.65 479.05 57.175 L 479.05 57.175 L 479.05 57.175 Q 477.05 55.7 475.8 53.45 L 475.8 53.45 L 475.8 53.45 Q 474.55 51.2 474.55 48 L 474.55 48 L 474.55 48 Q 474.55 43.9 477.2 41.2 L 477.2 41.2 L 477.2 41.2 Q 479.85 38.5 484.05 37.125 L 484.05 37.125 L 484.05 37.125 Q 488.25 35.75 493 35.75 Z  M 531.35 51.25 L 545.6 36.95 L 562.8 36.95 L 543.45 56.55 L 564.8 78 L 547.2 78 L 531.35 61.5 L 531.35 78 L 516.15 78 L 516.15 9.2 L 531.35 9.2 L 531.35 51.25 L 531.35 51.25 Z  M 610.65 60.7 L 580.95 60.7 L 580.95 60.7 Q 581.1 62.9 582.35 64.6 L 582.35 64.6 L 582.35 64.6 Q 583.6 66.3 585.825 67.275 L 585.825 67.275 L 585.825 67.275 Q 588.05 68.25 591.1 68.25 L 591.1 68.25 L 591.1 68.25 Q 594 68.25 596.325 67.65 L 596.325 67.65 L 596.325 67.65 Q 598.65 67.05 600.375 66.15 L 600.375 66.15 L 600.375 66.15 Q 602.1 65.25 603.05 64.3 L 603.05 64.3 L 608.95 73.7 L 608.95 73.7 Q 607.7 75.05 605.425 76.325 L 605.425 76.325 L 605.425 76.325 Q 603.15 77.6 599.45 78.4 L 599.45 78.4 L 599.45 78.4 Q 595.75 79.2 590.1 79.2 L 590.1 79.2 L 590.1 79.2 Q 583.3 79.2 578 76.65 L 578 76.65 L 578 76.65 Q 572.7 74.1 569.65 69.15 L 569.65 69.15 L 569.65 69.15 Q 566.6 64.2 566.6 57.05 L 566.6 57.05 L 566.6 57.05 Q 566.6 51.05 569.225 46.225 L 569.225 46.225 L 569.225 46.225 Q 571.85 41.4 576.85 38.575 L 576.85 38.575 L 576.85 38.575 Q 581.85 35.75 588.9 35.75 L 588.9 35.75 L 588.9 35.75 Q 595.6 35.75 600.525 38.2 L 600.525 38.2 L 600.525 38.2 Q 605.45 40.65 608.125 45.475 L 608.125 45.475 L 608.125 45.475 Q 610.8 50.3 610.8 57.5 L 610.8 57.5 L 610.8 57.5 Q 610.8 57.9 610.775 59.1 L 610.775 59.1 L 610.775 59.1 Q 610.75 60.3 610.65 60.7 L 610.65 60.7 L 610.65 60.7 Z  M 581.3 52.75 L 596.5 52.75 L 596.5 52.75 Q 596.45 51.15 595.65 49.575 L 595.65 49.575 L 595.65 49.575 Q 594.85 48 593.25 46.975 L 593.25 46.975 L 593.25 46.975 Q 591.65 45.95 589.15 45.95 L 589.15 45.95 L 589.15 45.95 Q 586.65 45.95 584.925 46.925 L 584.925 46.925 L 584.925 46.925 Q 583.2 47.9 582.3 49.45 L 582.3 49.45 L 582.3 49.45 Q 581.4 51 581.3 52.75 L 581.3 52.75 L 581.3 52.75 Z  M 632.55 57.4 L 632.55 78 L 617.35 78 L 617.35 36.95 L 632.55 36.95 L 632.55 43.3 L 632.3 43.3 L 632.3 43.3 Q 632.7 42.15 634.25 40.375 L 634.25 40.375 L 634.25 40.375 Q 635.8 38.6 638.6 37.175 L 638.6 37.175 L 638.6 37.175 Q 641.4 35.75 645.45 35.75 L 645.45 35.75 L 645.45 35.75 Q 648.3 35.75 650.7 36.625 L 650.7 36.625 L 650.7 36.625 Q 653.1 37.5 654.2 38.3 L 654.2 38.3 L 648.3 50.65 L 648.3 50.65 Q 647.6 49.8 645.825 48.875 L 645.825 48.875 L 645.825 48.875 Q 644.05 47.95 641.4 47.95 L 641.4 47.95 L 641.4 47.95 Q 638.35 47.95 636.375 49.5 L 636.375 49.5 L 636.375 49.5 Q 634.4 51.05 633.475 53.25 L 633.475 53.25 L 633.475 53.25 Q 632.55 55.45 632.55 57.4 L 632.55 57.4 L 632.55 57.4 Z " fill-rule="evenodd" fill="rgb(93,93,93)"/></g><defs><filter id="znXMC0EW0WsfOgNuQthpGsDK0JfrxkjY" x="-200%" y="-200%" width="400%" height="400%"><feOffset xmlns="http://www.w3.org/2000/svg" in="SourceAlpha" result="offOut" dx="0" dy="0"/><feGaussianBlur xmlns="http://www.w3.org/2000/svg" in="offOut" result="blurOut" stdDeviation="2.5"/><feComponentTransfer xmlns="http://www.w3.org/2000/svg" in="blurOut" result="opacOut"><feFuncA xmlns="http://www.w3.org/2000/svg" type="table" tableValues="0 0.5"/></feComponentTransfer><feBlend xmlns="http://www.w3.org/2000/svg" in="SourceGraphic" in2="opacOut" mode="normal"/></filter></defs><g filter="url(#znXMC0EW0WsfOgNuQthpGsDK0JfrxkjY)"><path d="M 134 86 L 658 86 C 661.863 86 665 89.137 665 93 L 665 93 C 665 96.863 661.863 100 658 100 L 134 100 C 130.137 100 127 96.863 127 93 L 127 93 C 127 89.137 130.137 86 134 86 Z" style="stroke:none;fill:#FF4500;stroke-miterlimit:10;"/></g><g id="Icon" filter="url(#oUYOqU2OnlHIFEJdWdHTMYW4XhGbCSyy)"><path d="M 24.195 0 L 105.805 0 C 110.88 0 115 4.12 115 9.195 L 115 90.805 C 115 95.88 110.88 100 105.805 100 L 24.195 100 C 19.12 100 15 95.88 15 90.805 L 15 9.195 C 15 4.12 19.12 0 24.195 0 Z" style="stroke:none;fill:#FFFFFF;stroke-miterlimit:10;"/><g id="Group"><path d="M 21.929 0 L 108.071 0 C 111.895 0 115 3.105 115 6.929 L 115 18.071 C 115 21.895 111.895 25 108.071 25 L 21.929 25 C 18.105 25 15 21.895 15 18.071 L 15 6.929 C 15 3.105 18.105 0 21.929 0 Z" style="stroke:none;fill:#FF4500;stroke-miterlimit:10;"/><rect x="15" y="15" width="100" height="10" transform="matrix(1,0,0,1,0,0)" fill="rgb(255,69,0)"/></g><g id="Group"><path d="M 31.272 72 L 113.728 72 C 119.949 72 125 76.929 125 83 L 125 83 C 125 89.071 119.949 94 113.728 94 L 31.272 94 C 25.051 94 20 89.071 20 83 L 20 83 C 20 76.929 25.051 72 31.272 72 Z" style="stroke:none;fill:#B9B9B9;stroke-miterlimit:10;"/><path d="M 16.272 45 L 98.728 45 C 104.949 45 110 49.929 110 56 L 110 56 C 110 62.071 104.949 67 98.728 67 L 16.272 67 C 10.051 67 5 62.071 5 56 L 5 56 C 5 49.929 10.051 45 16.272 45 Z" style="stroke:none;fill:#B9B9B9;stroke-miterlimit:10;"/><path d="M 31.272 18 L 113.728 18 C 119.949 18 125 22.929 125 29 L 125 29 C 125 35.071 119.949 40 113.728 40 L 31.272 40 C 25.051 40 20 35.071 20 29 L 20 29 C 20 22.929 25.051 18 31.272 18 Z" style="stroke:none;fill:#B9B9B9;stroke-miterlimit:10;"/></g></g><defs><filter id="oUYOqU2OnlHIFEJdWdHTMYW4XhGbCSyy" x="-200%" y="-200%" width="400%" height="400%"><feOffset xmlns="http://www.w3.org/2000/svg" in="SourceAlpha" result="offOut" dx="0" dy="0"/><feGaussianBlur xmlns="http://www.w3.org/2000/svg" in="offOut" result="blurOut" stdDeviation="2.5"/><feComponentTransfer xmlns="http://www.w3.org/2000/svg" in="blurOut" result="opacOut"><feFuncA xmlns="http://www.w3.org/2000/svg" type="table" tableValues="0 0.5"/></feComponentTransfer><feBlend xmlns="http://www.w3.org/2000/svg" in="SourceGraphic" in2="opacOut" mode="normal"/></filter></defs></svg>